<?xml version="1.0" standalone="no"?>
<!DOCTYPE svg PUBLIC "-//W3C//DTD SVG 20010904//EN"
 "http://www.w3.org/TR/2001/REC-SVG-20010904/DTD/svg10.dtd">
<svg version="1.0" xmlns="http://www.w3.org/2000/svg"
 width="815.000000pt" height="815.000000pt" viewBox="0 0 815.000000 815.000000"
 preserveAspectRatio="xMidYMid meet">
<metadata>
Created by potrace 1.11, written by Peter Selinger 2001-2013
</metadata>
<g transform="translate(0.000000,815.000000) scale(0.100000,-0.100000)"
fill="#000000" stroke="none">
<path d="M120 5765 c0 -861 2 -1565 4 -1565 2 0 11 21 21 48 25 67 124 265
175 347 402 658 1060 1187 1785 1434 208 70 468 134 632 155 253 32 359 38
572 33 276 -6 445 -32 615 -94 38 -14 39 -14 25 6 -8 11 -246 285 -529 610
l-515 590 -1392 1 -1393 0 0 -1565z"/>
<path d="M4696 6687 c-308 -354 -561 -647 -562 -652 -1 -6 32 -37 74 -70 180
-142 255 -348 197 -540 -67 -223 -279 -548 -646 -990 -232 -279 -460 -535
-1130 -1265 -836 -912 -1158 -1309 -1312 -1616 -67 -134 -80 -181 -76 -279 4
-77 6 -86 34 -115 45 -47 108 -61 245 -56 161 6 302 40 521 125 230 89 608
326 917 575 466 375 1202 1122 1917 1946 126 146 446 543 1278 1590 64 80 109
128 125 132 58 16 277 27 610 32 193 2 352 2 352 -1 0 -2 -35 -45 -78 -96
-285 -337 -645 -853 -1044 -1497 -345 -557 -665 -1143 -908 -1665 -93 -200
-217 -543 -263 -730 -16 -67 -22 -120 -22 -206 0 -109 2 -119 30 -174 70 -135
282 -212 471 -170 162 35 306 119 458 265 313 301 511 734 543 1188 3 50 10
92 14 92 19 0 139 -135 167 -187 60 -115 75 -175 74 -313 -1 -148 -28 -267
-92 -406 -135 -292 -424 -563 -757 -709 l-78 -34 1143 -1 1142 0 0 3235 0
3235 -1392 -1 -1393 -1 -559 -641z"/>
<path d="M2860 6023 c-19 -2 -78 -13 -130 -24 -613 -134 -1299 -500 -1709
-910 -166 -167 -276 -317 -361 -494 -85 -176 -120 -328 -120 -519 0 -183 43
-319 139 -440 112 -140 272 -231 566 -319 l80 -25 -70 -32 c-383 -175 -950 -3
-1107 335 l-23 50 -3 -1389 c-1 -764 0 -1391 1 -1393 2 -2 174 -2 382 -1 l379
3 -60 37 c-75 46 -180 155 -226 234 -64 110 -83 183 -82 319 0 122 16 204 63
330 165 440 600 1011 1436 1889 695 730 856 901 1003 1066 313 351 486 586
571 774 43 96 46 106 46 191 0 75 -4 96 -22 125 -63 102 -188 167 -363 190
-71 9 -315 11 -390 3z"/>
<path d="M2905 1524 c-168 -130 -410 -288 -613 -400 -109 -60 -335 -166 -392
-185 -14 -4 -70 -24 -125 -43 l-100 -35 658 0 657 -1 0 360 c0 198 -3 360 -7
359 -5 0 -39 -25 -78 -55z"/>
</g>
</svg>
