<?xml version="1.0" standalone="no"?>
<!DOCTYPE svg PUBLIC "-//W3C//DTD SVG 20010904//EN"
 "http://www.w3.org/TR/2001/REC-SVG-20010904/DTD/svg10.dtd">
<svg version="1.0" xmlns="http://www.w3.org/2000/svg"
 width="700.000000pt" height="700.000000pt" viewBox="0 0 700.000000 700.000000"
 preserveAspectRatio="xMidYMid meet">
<metadata>
Created by potrace 1.14, written by Peter Selinger 2001-2017
</metadata>
<g transform="translate(0.000000,700.000000) scale(0.100000,-0.100000)"
fill="#000000" stroke="none">
<path d="M0 3500 l0 -3500 3500 0 3500 0 0 3500 0 3500 -3500 0 -3500 0 0
-3500z m2265 2429 c217 -12 471 -7 777 13 201 13 246 7 266 -37 29 -63 2 -103
-88 -130 -201 -61 -272 -103 -328 -195 -73 -121 -67 52 -67 -2090 l0 -1925 27
-55 c58 -116 197 -160 505 -160 618 0 1146 127 1503 361 69 45 134 102 237
206 153 155 168 163 193 102 17 -40 6 -143 -26 -239 -75 -225 -352 -566 -528
-648 -112 -53 -139 -55 -691 -48 -280 4 -647 10 -815 14 -168 4 -415 4 -550 0
-135 -4 -383 -10 -551 -14 -304 -7 -306 -7 -327 14 -52 52 -15 96 139 161 149
63 171 75 214 113 41 36 72 91 92 163 30 113 34 371 31 2155 l-3 1785 -21 46
c-46 100 -136 157 -364 230 -163 52 -196 76 -186 133 14 73 28 74 561 45z"/>
</g>
</svg>
