<?xml version="1.0" standalone="no"?>
<!DOCTYPE svg PUBLIC "-//W3C//DTD SVG 20010904//EN"
 "http://www.w3.org/TR/2001/REC-SVG-20010904/DTD/svg10.dtd">
<svg version="1.0" xmlns="http://www.w3.org/2000/svg"
 width="300.000000pt" height="300.000000pt" viewBox="0 0 300.000000 300.000000"
 preserveAspectRatio="xMidYMid meet">
<metadata>
Created by potrace 1.11, written by Peter Selinger 2001-2013
</metadata>
<g transform="translate(0.000000,300.000000) scale(0.100000,-0.100000)"
fill="#000000" stroke="none">
<path d="M1453 2663 l-50 -118 -124 -7 c-326 -19 -574 -48 -724 -86 l-70 -18
-3 -630 c-2 -615 -2 -631 19 -699 70 -235 272 -471 569 -668 96 -63 409 -227
435 -227 26 0 339 164 435 227 297 197 499 433 569 668 21 68 21 84 19 699
l-3 630 -70 18 c-150 38 -397 67 -724 86 l-124 7 -49 115 c-27 63 -50 116 -52
117 -2 2 -25 -50 -53 -114z m196 -469 l133 -310 -31 -49 -31 -49 0 -683 0
-683 -77 -38 c-145 -72 -128 -71 -248 -14 l-105 51 0 683 0 684 -31 49 -31 48
138 324 c76 177 141 317 145 310 3 -6 66 -152 138 -323z m-299 239 c0 -16
-184 -433 -191 -433 -4 0 -18 19 -31 41 l-25 41 -96 -150 -97 -151 0 -548 0
-547 -61 59 c-113 112 -205 252 -250 382 -18 53 -19 87 -19 643 l0 586 88 17
c118 22 319 46 471 56 178 11 211 12 211 4z m685 -19 c83 -8 205 -24 273 -36
l122 -21 0 -587 c0 -556 -1 -590 -19 -643 -45 -130 -137 -270 -250 -382 l-61
-59 0 547 0 548 -97 151 -96 150 -25 -41 c-13 -22 -27 -41 -31 -41 -7 0 -191
417 -191 433 0 10 168 1 375 -19z m-845 -1298 l0 -638 -27 17 c-16 10 -56 38
-90 62 l-63 44 0 574 0 574 46 72 47 72 43 -69 44 -69 0 -639z m765 704 l45
-71 -2 -576 -3 -576 -85 -59 -85 -59 -3 637 -2 637 42 68 c24 38 44 69 45 69
1 0 23 -32 48 -70z"/>
</g>
</svg>
