<svg version="1" xmlns="http://www.w3.org/2000/svg" width="696" height="696" viewBox="0 0 522.000000 522.000000"><path d="M32.3 120.7c.3 118.9.4 121 2.5 132 6.5 33.6 16 62 30.8 91.4 16.8 33.6 35.7 60 63.4 88.3 31.7 32.4 67.2 57.9 111.8 80.3l19.3 9.6 16.5-8.1c62.5-30.9 109.1-68.5 146.2-118 28.5-38.2 49.5-83.4 59.6-128.4 5.7-25.2 5.6-22.6 5.6-150.1V0H31.9l.4 120.7zM336 239.4v236.3l-5.7 4c-15 10.5-40.9 25.3-60.5 34.5l-9.7 4.6-13.8-6.7c-21.9-10.7-53.4-29.3-60-35.4l-2.3-2V239.5c0-129.3.3-235.5.7-235.8.3-.4 34.5-.7 76-.7H336v236.4zm-225.5-171l3.8 12.5 14.4.3 14.4.3-11.5 8.2-11.4 8.3 4.3 13.5 4.3 13.5-3.2-2.2c-1.7-1.2-6.7-4.8-11-8-4.4-3.2-8.3-5.8-8.8-5.8s-5.9 3.7-12 8.1c-6.1 4.5-10.8 7.5-10.5 6.6 1.5-4.1 7.7-24.2 7.7-25.1 0-.6-5-4.7-11.1-9.1l-11.1-8 14.3-.5 14.3-.5 4-12.7c2.1-7 4.2-12.5 4.6-12.3.4.2 2.4 6 4.5 12.9zm308.6-.4l4.3 12.9 14.1.3 14 .3-8.9 6.5c-4.9 3.6-10 7.4-11.3 8.5l-2.3 2 4 12.4c2.3 6.8 3.9 12.5 3.7 12.8-.3.2-4.9-2.8-10.3-6.8-5.5-3.9-10.5-7.3-11.1-7.6-.7-.3-6 3-11.8 7.2-5.9 4.2-10.8 7.5-11.1 7.3-.2-.3 1.4-5.8 3.6-12.3 2.2-6.6 4-12.4 4-13-.1-.5-5.1-4.6-11.3-9l-11.2-8 14.2-.3 14.2-.3 4.3-12.9c2.3-7.2 4.3-13 4.5-13 .1 0 2.1 5.8 4.4 13zM119.8 263l4.3 12.9 13.7.3 13.6.3-10.3 7.4c-5.6 4.1-10.5 8-10.8 8.7-.3.8 1.3 6.8 3.6 13.6 2.2 6.7 3.9 12.3 3.8 12.5-.2.1-4.8-3-10.3-7-5.4-4-10.5-7.6-11.2-8.1-.8-.5-5.2 2.2-12.2 7.3-6.1 4.5-11.2 8.1-11.4 8.1-.3 0 1.5-5.9 4-13.2 2.4-7.3 4.1-13.5 3.6-13.8-.4-.4-5.3-4-11-8.1l-10.3-7.4 13.7-.5 13.8-.5 4.1-12.7c2.2-7 4.2-12.8 4.5-12.8.3 0 2.5 5.8 4.8 13zm287.9-.3l4.1 12.8 13.7.5 13.7.5-10.6 7.7c-5.8 4.3-10.6 8.4-10.6 9.2 0 .7.7 3.3 1.5 5.6 3.8 10.7 6.3 20 5.2 19.3-.7-.4-5.8-4-11.4-8.1l-10.3-7.4-10.2 7.4c-5.7 4.1-10.8 7.8-11.5 8.2-.8.4-.5-1.5.8-5.1 1.1-3.2 3-9.2 4.3-13.4l2.4-7.6-11-7.9-11-7.9 13.8-.5 13.9-.5 3.9-12.8c2.2-7 4.3-12.7 4.6-12.7.3 0 2.5 5.7 4.7 12.7z"/><path d="M260 47.2c2.7 4.5 2.5 6.6-1.1 12.3-1.7 2.6-4 7.1-5.1 9.9-1.1 2.8-2.1 5.2-2.2 5.4-.2.1-2-1.4-4.1-3.3-2-2-3.9-3.4-4.2-3.2-.2.3.3 2.2 1.1 4.2 2.8 6.6 2.1 9.6-3.4 15.9-2.7 3.1-5 6.3-5 7.1 0 2.9-2 2.5-3.4-.7l-1.4-3.3-.1 5.2c-.1 2.8.4 6.4 1 8l1 2.8-2.5-2.4c-2.4-2.3-2.6-2.3-2.6-.5 0 3.4 5.1 12.3 8.4 14.9 5.9 4.5 11.1 5.8 24.1 5.9 11.3.1 12.3-.1 17.8-2.8 3.8-1.8 6.9-4.3 8.8-6.9 3.2-4.4 3.2-5.5-.1-3.7-3.4 1.8-3.5.4-.3-3.7 5.2-6.6 6.6-10.2 6-15.4-.5-4.2-4-12.9-5.2-12.9-.2 0-1.4 2.2-2.6 4.9-2.1 4.9-7.3 11.2-5.4 6.6 2.8-7 3.5-10.3 3.7-16.8.2-8-1.5-12.5-6.1-15.6-2.3-1.5-2.4-1.5-1.3.6 1.5 2.6 1.5 5.3.2 7.3-1.4 2.1-2.3.5-5.6-9.2-1.9-5.7-3.4-8.5-6-10.8-4.8-4.2-7-4.1-4.4.2zM222.6 135c-1.4 2.2-2.6 4.1-2.6 4.4 0 .2 3 .5 6.8.8 4.9.2 7.6.9 9.8 2.5 4.1 2.9 8 10.5 9.4 18.3.7 3.6 1.4 7 1.5 7.6.2.8 2.6.7 8.2-.2 4.3-.7 11-1.3 14.9-1.3l7.1-.1.7-4.9c1.3-9.6 6.4-18.3 12.2-20.7 1.8-.8 5.8-1.4 8.9-1.4 3 0 5.5-.2 5.5-.6 0-.3-1-2.3-2.2-4.4l-2.3-4h-75.2l-2.7 4zM256 172.1c-1.9.5-7.9 1.4-13.3 1.9-11.1 1-15.8 2.9-27.2 10.7-7.8 5.4-10.7 9.2-8.9 12 1.8 3 11 5.5 20.9 5.6 10.3.1 11.7-.4 19.1-7.4 6-5.6 9.2-6.4 24.2-5.7 11.1.5 14.6 1.9 18.9 7.5 2.2 2.8 2.8 4.7 2.8 8.4 0 5.7-2 8.8-9.3 14.3l-5.2 3.9v17.9l3.3-.7c6-1.3 15.1-4.6 19.5-7.2 9.8-5.8 15-18.1 13-30.9-2.3-14.5-13.4-26.4-27.8-29.8-7.1-1.7-24.3-2-30-.5z"/><path d="M252.8 194.7l-3.8 1.5v8.7c0 14.7 2.2 54.6 3.1 55.5 1.4 1.5 21 4.5 21.4 3.2.3-1.2 2.5-59.2 2.5-66.4V193l-9.7.1c-6.5 0-11.1.5-13.5 1.6z"/><path d="M243 230.1c-5.5 3.3-10.9 9-13.8 14.4-3.5 6.7-3.7 16.9-.4 23.2 4.8 9.2 13.2 14.7 25 16.5 19.8 3 26.2 5.5 26.2 10.2 0 1.2-1.1 3.3-2.5 4.6-2.3 2.2-2.5 3-2.5 12.1v9.8l3.1-1.1c9.8-3.4 18.2-13.5 19.4-23.3.9-6.5-1.4-15-5.1-19.5-4.1-4.8-9.1-6.8-25.4-10-15.4-3.1-18.6-4.1-20.7-6.9-1.6-2.1-1.6-9.1 0-11.6.9-1.4 1.1-4.7.7-11.2l-.5-9.3-3.5 2.1z"/><path d="M252.6 291.3c.2 2.3.7 13.1 1 24l.6 19.7 5.2 1.4c2.8.8 6.5 1.7 8.2 2.1l3.2.6.7-22.3c.3-12.3.8-23 1.1-23.9.6-2.1-2.8-3.6-10.2-4.4-3.2-.3-6.9-.8-8-1-2-.4-2.1-.1-1.8 3.8z"/><path d="M245.9 312.1c-2.1 1-5.3 3.7-7.3 6-11.5 13.5-3.4 35.9 14.4 39.8 2.5.5 7 1.4 10.1 2.1 8.6 1.7 9.3 2.9 9 16-.1 6.1.2 11 .7 11 1.8 0 9.3-7.3 11.6-11.3 3.3-5.7 4-9.9 2.6-15.7-1.2-5-5.8-11.3-11-15-1.5-1.1-7.2-3.2-12.7-4.6-5.4-1.4-10.3-3-10.9-3.5-.6-.5-1.2-4.9-1.3-10.1-.1-5.1-.5-10.9-.9-13l-.7-3.6-3.6 1.9z"/><path d="M255.5 370.6c.3 4.9.8 14.6 1.1 21.6l.6 12.8 5.2 4.6 5.1 4.7.7-14.4c1.6-34.7 1.6-34.7-1.2-35.9-1.3-.6-4.6-1.4-7.2-1.7l-4.8-.6.5 8.9z"/><path d="M247.2 386.6c-5.3 4.5-7.2 8.1-7.2 13.8 0 6.2 1.2 8.9 6.6 14.6 9.3 9.9 31.7 21.5 36.5 19 3.8-2.1.4-6.3-10.8-13.6-15.1-9.8-21.2-16.9-19.1-22.4 1-2.7.1-15-1.1-15-.4 0-2.6 1.6-4.9 3.6zM258 432.8c0 7.1 1.9 17.5 3.5 19.1 1.3 1.3 1.6 1 3-2.2.8-2 1.6-6.8 1.7-10.7l.3-7.1-4.2-1.9-4.3-1.9v4.7z"/></svg>